#!OML:ASF I:\Actors\actors\Patient Classification 2\Patient 1\Session 1\actor1.ASF
:FULLY-SPECIFIED
:DEGREES
1135
root -0.651818 18.4107 5.63656 -3.11467 1.67148 -6.59741
lowerback 9.99286 0.828119 -5.82944
upperback -0.191941 0.0723854 -5.81668
thorax -5.8354 0.117418 -2.85525
lowerneck -9.98004 -5.13003 -7.4436
upperneck 12.2217 -5.76794 0.11599
head 5.55893 -3.14462 0.784941
rclavicle -3.97569e-016 -8.5875e-014
rhumerus 4.72886 5.43323 -25.5543
rradius 139.332
rwrist -79.2851
rhand 35.4152 -33.3905
rfingers 7.12502
rthumb 58.4983 -48.6562
lclavicle -3.97569e-016 -8.5875e-014
lhumerus -1.12573 -26.7615 45.4105
lradius 98.5638
lwrist 44.3079
lhand 6.73001 -22.7704
lfingers 7.12502
lthumb 32.0187 4.4318
rfemur 11.7661 2.07997 20.9597
rtibia 9.54166e-015
rfoot -16.9114 -13.7586
rtoes -18.558
lfemur -7.62124 -1.50825 -6.8738
ltibia 32.7279
lfoot -22.5824 4.96618
ltoes -57.12
1136
root -0.646897 18.4095 5.6556 -3.13706 1.81444 -6.57142
lowerback 9.85371 0.813614 -5.65232
upperback -0.241593 0.0918979 -5.68276
thorax -5.80793 0.124136 -2.8128
lowerneck -10.1835 -5.08206 -7.26606
upperneck 12.2308 -5.70028 0.016732
head 5.58486 -3.11028 0.726564
rclavicle 1.55052e-014 -6.04305e-014
rhumerus 4.61701 5.34775 -25.5641
rradius 138.455
rwrist -78.3327
rhand 33.9194 -33.4287
rfingers 7.12502
rthumb 57.1919 -49.8537
lclavicle 1.55052e-014 -6.04305e-014
lhumerus -0.738739 -26.5865 45.3084
lradius 98.5228
lwrist 44.174
lhand 7.01931 -22.9727
lfingers 7.12502
lthumb 32.2941 4.17383
rfemur 11.8746 1.94145 20.8973
rtibia -1.11319e-014
rfoot -16.9736 -13.6989
rtoes -18.4566
lfemur -7.57014 -1.63534 -6.9331
ltibia 32.7229
lfoot -22.6377 4.92628
ltoes -57.1057
1137
root -0.641186 18.4078 5.67276 -3.14513 1.95457 -6.56738
lowerback 9.69123 0.766434 -5.49255
upperback -0.278676 0.0692174 -5.53897
thorax -5.7542 0.110421 -2.74325
lowerneck -10.3572 -4.98747 -6.98322
upperneck 12.1594 -5.58137 -0.149581
head 5.57367 -3.04961 0.636908
rclavicle -1.2921e-015 6.36111e-015
rhumerus 4.66341 5.32088 -25.7157
rradius 137.474
rwrist -77.2084
rhand 32.7233 -33.6066
rfingers 7.12502
rthumb 56.1372 -50.8894
lclavicle -1.2921e-015 6.36111e-015
lhumerus -0.407269 -26.256 45.1673
lradius 98.5073
lwrist 44.0952
lhand 7.33712 -22.8902
lfingers 7.12502
lthumb 32.5965 4.19429
rfemur 11.9581 1.80507 20.8548
rtibia 1.27222e-014
rfoot -17.0531 -13.6201
rtoes -18.1824
lfemur -7.54193 -1.6833 -6.95688
ltibia 32.7177
lfoot -22.6765 4.80779
ltoes -57.0869
1138
root -0.634531 18.4067 5.68978 -3.17378 2.06487 -6.54764
lowerback 9.57154 0.719469 -5.36875
upperback -0.312062 0.0374301 -5.40856
thorax -5.72103 0.0932247 -2.6677
lowerneck -10.5647 -4.86637 -6.72801
upperneck 12.1334 -5.43531 -0.210033
head 5.58571 -2.97056 0.585619
rclavicle -1.68967e-015 9.54166e-015
rhumerus 4.69256 5.33425 -25.9991
rradius 136.48
rwrist -75.889
rhand 31.631 -33.6478
rfingers 7.12502
rthumb 55.167 -51.665
lclavicle -1.68967e-015 9.54166e-015
lhumerus -0.100094 -25.9129 44.9336
lradius 98.5217
lwrist 44.0964
lhand 7.45948 -22.8666
lfingers 7.12502
lthumb 32.7129 4.19378
rfemur 12.0635 1.69896 20.8002
rtibia 2.70347e-014
rfoot -17.1359 -13.5564
rtoes -17.9823
lfemur -7.48741 -1.69185 -6.99487
ltibia 32.7198
lfoot -22.7162 4.67282
ltoes -57.0524
1139
root -0.629005 18.4061 5.70408 -3.17474 2.18737 -6.50999
lowerback 9.52791 0.701408 -5.22961
upperback -0.383185 0.0352703 -5.28162
thorax -5.77071 0.0911589 -2.61148
lowerneck -10.6546 -4.78308 -6.5869
upperneck 12.0553 -5.34047 -0.210596
head 5.56872 -2.91668 0.570169
rclavicle 3.926e-015 6.36111e-015
rhumerus 4.62201 5.27613 -26.234
rradius 135.451
rwrist -74.1961
rhand 30.4164 -33.4472
rfingers 7.12502
rthumb 54.0809 -52.2304
lclavicle 3.926e-015 6.36111e-015
lhumerus 0.273187 -25.6953 44.6817
lradius 98.4989
lwrist 44.1279
lhand 7.40717 -23.0231
lfingers 7.12502
lthumb 32.6632 4.0476
rfemur 12.1362 1.58102 20.7352
rtibia -1.11319e-014
rfoot -17.2093 -13.5211
rtoes -17.8841
lfemur -7.48449 -1.67243 -7.04485
ltibia 32.7268
lfoot -22.7097 4.56537
ltoes -57.0776
1140
root -0.62451 18.4061 5.71732 -3.12109 2.3035 -6.48932
lowerback 9.43774 0.726486 -5.03433
upperback -0.485255 0.0975139 -5.17485
thorax -5.82616 0.118856 -2.61737
lowerneck -10.4958 -4.74796 -6.36035
upperneck 11.8477 -5.33029 -0.316915
head 5.46666 -2.90582 0.508623
rclavicle -7.70291e-016 -3.18055e-014
rhumerus 4.45914 5.14307 -26.4173
rradius 134.32
rwrist -72.131
rhand 29.3594 -33.2169
rfingers 7.12502
rthumb 53.1301 -52.6265
lclavicle -7.70291e-016 -3.18055e-014
lhumerus 0.799062 -25.5878 44.4275
lradius 98.4197
lwrist 44.0085
lhand 7.19177 -23.1381
lfingers 7.12502
lthumb 32.4582 3.97486
rfemur 12.1452 1.46853 20.6919
rtibia -1.74931e-014
rfoot -17.251 -13.4968
rtoes -17.8164
lfemur -7.53298 -1.62814 -7.07091
ltibia 32.7243
lfoot -22.7073 4.47034
ltoes -57.1583
